<svg xmlns="http://www.w3.org/2000/svg" viewBox="0 0 14.44 18.99"><defs><style>.cls-1,.cls-2{fill:#fff;}.cls-2{fill-rule:evenodd;}</style></defs><title>Ресурс 4</title><g id="Слой_2" data-name="Слой 2"><g id="_1" data-name="1"><ellipse class="cls-1" cx="7.22" cy="4.64" rx="3.82" ry="4.64"/><path class="cls-2" d="M14.44,16.19c-.07-4.47-.65-5.74-5.12-6.55a2.68,2.68,0,0,1-2.09.8,2.68,2.68,0,0,1-2.09-.8C.71,10.44.09,11.7,0,16c0,.36,0,.37,0,.33s0,.22,0,.47C0,16.85,1.06,19,7.22,19s7.22-2.14,7.22-2.14c0-.16,0-.27,0-.35A3,3,0,0,1,14.44,16.19Z"/></g></g></svg>