<svg xmlns="http://www.w3.org/2000/svg" viewBox="0 0 20 20.45"><defs><style>.cls-1,.cls-2{fill:#7cba73;}.cls-2{fill-rule:evenodd;}</style></defs><title>Ресурс 1</title><g id="Слой_2" data-name="Слой 2"><g id="_1" data-name="1"><rect class="cls-1" x="4.68" y="10.82" width="2.55" height="2.55" rx="0.46" ry="0.46"/><rect class="cls-1" x="8.73" y="10.82" width="2.55" height="2.55" rx="0.46" ry="0.46"/><rect class="cls-1" x="12.77" y="10.82" width="2.55" height="2.55" rx="0.46" ry="0.46"/><rect class="cls-1" x="4.68" y="14.87" width="2.55" height="2.55" rx="0.46" ry="0.46"/><rect class="cls-1" x="8.73" y="14.87" width="2.55" height="2.55" rx="0.46" ry="0.46"/><rect class="cls-1" x="12.77" y="14.87" width="2.55" height="2.55" rx="0.46" ry="0.46"/><path class="cls-2" d="M18.22,2.28V4.75a2,2,0,0,1-2,2H14.92a2,2,0,0,1-2-2V2.27H7.12V4.75a2,2,0,0,1-2,2H3.81a2,2,0,0,1-2-2V2.28A1.84,1.84,0,0,0,0,4.11v14.5a1.84,1.84,0,0,0,1.83,1.84H18.17A1.84,1.84,0,0,0,20,18.61V4.11a1.84,1.84,0,0,0-1.78-1.83Zm-.59,15.43a.79.79,0,0,1-.79.79H3.13a.79.79,0,0,1-.79-.79V10.22a.79.79,0,0,1,.79-.79h13.7a.79.79,0,0,1,.79.79Z"/><rect class="cls-1" x="3.11" width="2.65" height="5.44" rx="0.69" ry="0.69"/><rect class="cls-1" x="14.21" width="2.65" height="5.44" rx="0.69" ry="0.69"/></g></g></svg>