<svg xmlns="http://www.w3.org/2000/svg" viewBox="0 0 12.67 17.19"><defs><style>.cls-1{fill:gray;fill-rule:evenodd;}</style></defs><title>Ресурс 4</title><g id="Слой_2" data-name="Слой 2"><g id="_1" data-name="1"><path class="cls-1" d="M7.72,2.2H4.95V1.81A.79.79,0,0,1,5.74,1H6.93a.79.79,0,0,1,.79.79V2.2Zm2.83,0H8.74V1.81A1.82,1.82,0,0,0,6.93,0H5.74A1.82,1.82,0,0,0,3.93,1.81V2.2H2.12A2.12,2.12,0,0,0,0,4.32v.54H12.67V4.32A2.12,2.12,0,0,0,10.55,2.2Z"/><path class="cls-1" d="M3.35,7.41h1v8.24h-1V7.41Zm2.47,0h1v8.24h-1V7.41Zm2.47,0h1v8.24h-1V7.41ZM.71,16.15a1,1,0,0,0,1,1h9.17a1,1,0,0,0,1-1V5.87H.71Z"/></g></g></svg>