<svg xmlns="http://www.w3.org/2000/svg" viewBox="0 0 17.95 18.57"><defs><style>.cls-1,.cls-2{fill:#263c57;}.cls-1{fill-rule:evenodd;}.cls-2,.cls-3{stroke:#587496;}.cls-2{stroke-miterlimit:22.93;stroke-width:1px;}.cls-3{fill:none;stroke-linecap:round;stroke-linejoin:round;stroke-width:1px;}</style></defs><title>Ресурс 7</title><g id="Слой_2" data-name="Слой 2"><g id="_1" data-name="1"><path class="cls-1" d="M11.64,8.4C14,8.4,14.82,6.06,15,4.14,15.31,1.78,14.19,0,11.64,0S8,1.78,8.25,4.14C8.47,6.06,9.31,8.4,11.64,8.4Z"/><path class="cls-1" d="M18,14.22A15.94,15.94,0,0,0,17.71,12c-.16-.89-.36-2.19-1.13-2.77A6.35,6.35,0,0,0,15,8.58a6.73,6.73,0,0,1-.68-.31,3.55,3.55,0,0,1-2.71,1.18A3.55,3.55,0,0,1,8.93,8.27a6.76,6.76,0,0,1-.68.31,6.34,6.34,0,0,0-1.54.65c-.78.58-1,1.88-1.13,2.77a15.94,15.94,0,0,0-.24,2.23c0,.58.27.66.75.83a14,14,0,0,0,1.86.51,18.7,18.7,0,0,0,3.71.46,18.7,18.7,0,0,0,3.71-.46,14,14,0,0,0,1.86-.51c.45-.16.73-.24.75-.73Z"/><circle class="cls-2" cx="5.5" cy="13.07" r="5"/><line class="cls-3" x1="2.84" y1="13.16" x2="7.65" y2="13.16"/><line class="cls-3" x1="5.25" y1="10.75" x2="5.25" y2="15.56"/></g></g></svg>